<?xml version="1.0" encoding="UTF-8" standalone="no"?>
<!-- Created with Inkscape (http://www.inkscape.org/) -->

<svg
   xmlns:dc="http://purl.org/dc/elements/1.1/"
   xmlns:cc="http://creativecommons.org/ns#"
   xmlns:rdf="http://www.w3.org/1999/02/22-rdf-syntax-ns#"
   xmlns:svg="http://www.w3.org/2000/svg"
   xmlns="http://www.w3.org/2000/svg"
   xmlns:xlink="http://www.w3.org/1999/xlink"
   xmlns:sodipodi="http://sodipodi.sourceforge.net/DTD/sodipodi-0.dtd"
   xmlns:inkscape="http://www.inkscape.org/namespaces/inkscape"
   width="173.78125"
   height="173.8125"
   id="svg3812"
   version="1.1"
   inkscape:version="0.48.3.1 r9886"
   sodipodi:docname="status_icon_30.svg"
   inkscape:export-xdpi="12.42942"
   inkscape:export-ydpi="12.42942">
  <defs
     id="defs3814">
    <linearGradient
       id="linearGradient3754">
      <stop
         style="stop-color:#828282;stop-opacity:1;"
         offset="0"
         id="stop3756" />
      <stop
         style="stop-color:#919191;stop-opacity:1;"
         offset="1"
         id="stop3758" />
    </linearGradient>
    <linearGradient
       inkscape:collect="always"
       xlink:href="#linearGradient3754"
       id="linearGradient3760"
       x1="435.95435"
       y1="435.21932"
       x2="609.75993"
       y2="435.21932"
       gradientUnits="userSpaceOnUse"
       gradientTransform="translate(-435.96875,-348.3125)" />
    <linearGradient
       inkscape:collect="always"
       xlink:href="#linearGradient3754"
       id="linearGradient3768"
       x1="435.95435"
       y1="435.21933"
       x2="609.75995"
       y2="435.21933"
       gradientUnits="userSpaceOnUse"
       gradientTransform="translate(-435.96875,-348.3125)" />
    <linearGradient
       inkscape:collect="always"
       xlink:href="#linearGradient3754"
       id="linearGradient3814"
       gradientUnits="userSpaceOnUse"
       gradientTransform="translate(-435.96875,-348.3125)"
       x1="435.95435"
       y1="435.21932"
       x2="609.75993"
       y2="435.21932" />
    <linearGradient
       inkscape:collect="always"
       xlink:href="#linearGradient3754"
       id="linearGradient3816"
       gradientUnits="userSpaceOnUse"
       gradientTransform="translate(-435.96875,-348.3125)"
       x1="435.95435"
       y1="435.21933"
       x2="609.75995"
       y2="435.21933" />
  </defs>
  <sodipodi:namedview
     id="base"
     pagecolor="#ffffff"
     bordercolor="#666666"
     borderopacity="1.0"
     inkscape:pageopacity="0.0"
     inkscape:pageshadow="2"
     inkscape:zoom="1.4"
     inkscape:cx="-61.20226"
     inkscape:cy="115.78032"
     inkscape:document-units="px"
     inkscape:current-layer="layer1"
     showgrid="false"
     fit-margin-top="0"
     fit-margin-left="0"
     fit-margin-right="0"
     fit-margin-bottom="0"
     inkscape:window-width="1280"
     inkscape:window-height="761"
     inkscape:window-x="0"
     inkscape:window-y="0"
     inkscape:window-maximized="1" />
  <metadata
     id="metadata3817">
    <rdf:RDF>
      <cc:Work
         rdf:about="">
        <dc:format>image/svg+xml</dc:format>
        <dc:type
           rdf:resource="http://purl.org/dc/dcmitype/StillImage" />
        <dc:title />
      </cc:Work>
    </rdf:RDF>
  </metadata>
  <g
     inkscape:label="Layer 1"
     inkscape:groupmode="layer"
     id="layer1"
     transform="translate(-435.96875,-348.3125)">
    <path
       style="fill:#ffffff;fill-opacity:1;fill-rule:evenodd;stroke:#ffffff;stroke-width:4.77062321000000011;stroke-miterlimit:4;stroke-opacity:1;stroke-dasharray:none"
       d="M 23.40625 2.375 C 11.746285 2.375 2.375 11.777535 2.375 23.4375 L 2.375 150.375 C 2.375 162.03496 11.746285 171.4375 23.40625 171.4375 L 150.34375 171.4375 C 162.00371 171.4375 171.40625 162.03496 171.40625 150.375 L 171.40625 23.4375 C 171.40625 11.777535 162.00371 2.375 150.34375 2.375 L 23.40625 2.375 z M 17.59375 17.625 C 93.96771 17.625 156.1875 79.81356 156.1875 156.1875 L 128.1875 156.1875 C 128.1875 94.94587 78.83538 45.625 17.59375 45.625 L 17.59375 17.625 z M 17.59375 60.875 C 70.94518 60.875 114.5 103.70026 114.5 156.1875 L 86.28125 156.1875 C 86.28125 118.70953 55.68879 88.65625 17.59375 88.65625 L 17.59375 60.875 z M 40.8125 109.78125 C 53.633394 109.78125 64.03125 120.17911 64.03125 133 C 64.03125 145.82089 53.633394 156.1875 40.8125 156.1875 C 27.991606 156.1875 17.59375 145.82089 17.59375 133 C 17.59375 120.17911 27.991606 109.78125 40.8125 109.78125 z "
       transform="translate(435.96875,348.3125)"
       id="rect2996" />
  </g>
</svg>
